<?xml version="1.0" encoding="UTF-8" standalone="no"?>
<svg
   width="190"
   height="66"
   fill="none"
   viewBox="0 0 190 66"
   version="1.1"
   id="svg11"
   sodipodi:docname="CLion.svg"
   inkscape:version="1.4 (e7c3feb100, 2024-10-09)"
   xmlns:inkscape="http://www.inkscape.org/namespaces/inkscape"
   xmlns:sodipodi="http://sodipodi.sourceforge.net/DTD/sodipodi-0.dtd"
   xmlns="http://www.w3.org/2000/svg"
   xmlns:svg="http://www.w3.org/2000/svg">
  <sodipodi:namedview
     id="namedview11"
     pagecolor="#505050"
     bordercolor="#eeeeee"
     borderopacity="1"
     inkscape:showpageshadow="0"
     inkscape:pageopacity="0"
     inkscape:pagecheckerboard="0"
     inkscape:deskcolor="#d1d1d1"
     inkscape:zoom="3.0326296"
     inkscape:cx="128.76614"
     inkscape:cy="49.791771"
     inkscape:window-width="1503"
     inkscape:window-height="930"
     inkscape:window-x="0"
     inkscape:window-y="0"
     inkscape:window-maximized="1"
     inkscape:current-layer="svg11" />
  <defs
     id="defs4">
    <linearGradient
       id="a"
       x1="3.98138"
       x2="62.686798"
       y1="4.22048"
       y2="62.9254"
       gradientUnits="userSpaceOnUse"
       gradientTransform="scale(0.83182813)">
      <stop
         offset=".29"
         stop-color="#009AE5"
         id="stop1" />
      <stop
         offset=".7"
         stop-color="#00D980"
         id="stop2" />
    </linearGradient>
    <linearGradient
       id="b"
       x1="56.378799"
       x2="2.7525799"
       y1="-0.71737999"
       y2="24.1455"
       gradientUnits="userSpaceOnUse"
       gradientTransform="scale(0.83182813)">
      <stop
         offset=".3"
         stop-color="#FF318C"
         id="stop3" />
      <stop
         offset=".54"
         stop-color="#009AE5"
         id="stop4" />
    </linearGradient>
  </defs>
  <path
     fill="#ffffff"
     fill-rule="evenodd"
     d="m 81.680615,17.742894 c -1.530564,0 -2.919718,0.38264 -4.159142,1.147922 v -0.0083 c -1.239424,0.765281 -2.212662,1.821703 -2.911397,3.169265 -0.698737,1.347561 -1.048104,2.861488 -1.048104,4.5501 0,1.688611 0.349367,3.202538 1.048104,4.550099 0.698735,1.347562 1.671973,2.403984 2.911397,3.169265 1.239424,0.765282 2.628578,1.147924 4.159142,1.147924 1.131285,0 2.170988,-0.183003 3.144226,-0.565644 0.97324,-0.382641 1.805067,-0.923329 2.495485,-1.638701 0.690417,-0.715373 1.214468,-1.5472 1.555518,-2.495484 h 4.666557 c -0.407597,1.713566 -1.156242,3.227493 -2.270892,4.550099 -1.114649,1.322607 -2.495484,2.345756 -4.15914,3.077765 -1.663656,0.732008 -3.48536,1.098013 -5.465028,1.098013 -2.379029,0 -4.525145,-0.557325 -6.43835,-1.680294 -1.921522,-1.114649 -3.427131,-2.661849 -4.525145,-4.624963 -1.098013,-1.963115 -1.64702,-4.159142 -1.64702,-6.579761 0,-2.42062 0.549007,-4.616646 1.64702,-6.579761 1.098014,-1.963114 2.61194,-3.501996 4.525145,-4.624964 1.921523,-1.122968 4.06764,-1.680293 6.43835,-1.680293 1.979668,0 3.801372,0.366005 5.465028,1.098013 1.663656,0.723691 3.044491,1.755157 4.15914,3.077764 1.11465,1.322607 1.871614,2.844852 2.270892,4.5501 h -4.666557 c -0.34105,-0.956584 -0.856782,-1.780094 -1.555518,-2.495467 -0.698736,-0.715371 -1.522245,-1.25606 -2.495485,-1.6387 -0.973238,-0.382642 -2.012941,-0.573962 -3.144226,-0.573962 z m 19.722555,-3.601816 h 0.009 l -0.009,-0.0083 z m 0,0 H 96.994488 V 39.062649 H 113.4231 v -4.009412 h -12.01993 z m 18.72446,24.929889 H 115.9269 V 20.837294 h 4.20073 z m 0.29114,-20.155196 h -4.79133 v -4.167459 h 4.79133 z m 12.2861,1.497291 c 1.78843,0 3.41881,0.415914 4.87451,1.247742 1.4557,0.831828 2.60362,1.971433 3.44377,3.427132 0.84014,1.447381 1.25606,3.077764 1.25606,4.866194 0,1.788431 -0.41592,3.410496 -1.25606,4.866196 -0.84015,1.455699 -1.97975,2.595304 -3.44377,3.427131 -1.46401,0.831829 -3.11103,1.247743 -4.89947,1.247743 -1.78842,0 -3.41881,-0.415914 -4.87451,-1.247743 -1.4557,-0.831827 -2.60362,-1.971432 -3.44377,-3.427131 -0.84014,-1.447382 -1.25606,-3.077765 -1.25606,-4.866196 0,-1.78843 0.41592,-3.410494 1.24775,-4.866194 0.83183,-1.455699 1.97974,-2.595304 3.44376,-3.427132 1.47234,-0.831828 3.11936,-1.247742 4.90779,-1.247742 z m 2.71176,14.598584 c 0.79023,-0.482461 1.40579,-1.16456 1.83834,-2.046297 0.43255,-0.881738 0.64882,-1.871614 0.64882,-3.011219 0,-1.139604 -0.21627,-2.146115 -0.65714,-3.019535 -0.43255,-0.87342 -1.04811,-1.555519 -1.83834,-2.046298 -0.79024,-0.490778 -1.69693,-0.740326 -2.71176,-0.740326 -1.01483,0 -1.92152,0.249548 -2.71176,0.732009 -0.79023,0.48246 -1.39747,1.164558 -1.83003,2.046296 -0.43254,0.881739 -0.64882,1.896569 -0.64882,3.027854 0,1.131287 0.21628,2.129481 0.64882,3.011219 0.43256,0.87342 1.0398,1.563836 1.83003,2.046297 0.78192,0.490779 1.69693,0.732009 2.71176,0.732009 1.01483,0 1.92984,-0.249549 2.72008,-0.732009 z m 23.10818,-13.741801 c 0.98156,0.565644 1.74685,1.389154 2.29585,2.47053 l 0.009,0.02495 c 0.54068,1.073058 0.81519,2.362391 0.81519,3.859682 v 11.462596 h -4.1841 V 28.265519 c 0,-0.881737 -0.14973,-1.630383 -0.44918,-2.245935 -0.29946,-0.615553 -0.7237,-1.089695 -1.28102,-1.414108 -0.55733,-0.324413 -1.22278,-0.490778 -1.99638,-0.490778 -0.83183,0 -1.56384,0.183001 -2.20436,0.557324 -0.6405,0.374323 -1.1396,0.890056 -1.48896,1.563838 -0.34937,0.67378 -0.52406,1.430744 -0.52406,2.287526 v 10.5559 h -4.20073 V 20.845613 h 4.07596 v 2.670168 c 0.52405,-0.881738 1.20615,-1.59711 2.03797,-2.121162 1.0398,-0.657144 2.26258,-0.981557 3.66005,-0.981557 1.30597,0 2.4539,0.282822 3.43545,0.856783 z M 72.954737,61.738284 c 0.141411,-0.257867 0.207957,-0.549007 0.207957,-0.87342 h 0.0083 v -7.611228 h 2.578667 v 7.794231 c 0,0.732008 -0.166366,1.389152 -0.507416,1.97975 -0.341049,0.590598 -0.806873,1.048104 -1.39747,1.380835 -0.590598,0.332731 -1.264379,0.499096 -2.004706,0.499096 H 69.868636 V 62.536839 H 71.4907 c 0.332732,0 0.623872,-0.06654 0.87342,-0.207957 0.257867,-0.141411 0.449187,-0.332732 0.590598,-0.590598 z M 85.648351,60.15781 h -5.406799 v 2.512121 h 6.138808 v 2.245936 H 77.729431 V 53.253636 h 8.484564 v 2.254255 h -5.972443 v 2.470529 h 5.406799 z m 5.124062,-4.591691 h -3.460405 v -2.312483 h 9.474525 v 2.312483 h -3.435454 v 9.341429 h -2.578666 z m 14.307447,3.24413 c 0.24123,0.06654 0.46582,0.149729 0.67377,0.257866 h 0.009 c 0.47413,0.257867 0.84846,0.607235 1.11464,1.06474 0.26619,0.457506 0.39929,0.973239 0.39929,1.547201 0,0.623871 -0.16638,1.181195 -0.50743,1.671974 -0.34105,0.490778 -0.81519,0.87342 -1.43074,1.147923 -0.61555,0.274503 -1.31429,0.415914 -2.0962,0.415914 H 97.959609 V 53.253636 h 5.182291 c 0.74032,0 1.40579,0.133094 1.98807,0.39096 0.58228,0.257866 1.03146,0.623871 1.35587,1.089695 0.32442,0.465823 0.48246,0.998193 0.48246,1.588791 0,0.515734 -0.12477,0.97324 -0.366,1.372517 -0.24123,0.399277 -0.58228,0.715372 -1.00651,0.931647 -0.1489,0.07861 -0.32108,0.12752 -0.48662,0.174767 z m -2.32912,-3.601816 h -2.28753 v 2.869807 h 2.28753 c 0.31609,0 0.59891,-0.06654 0.84014,-0.183003 0.24955,-0.116455 0.43256,-0.282821 0.57397,-0.507415 0.14141,-0.224594 0.20795,-0.490778 0.20795,-0.7736 0,-0.282821 -0.0748,-0.53237 -0.20795,-0.740327 -0.14141,-0.216275 -0.33274,-0.374322 -0.57397,-0.490778 -0.24123,-0.116456 -0.52405,-0.174684 -0.84014,-0.174684 z m 1.03146,7.569636 c 0.26619,-0.124774 0.47415,-0.291141 0.62388,-0.515734 v 0.01663 c 0.14973,-0.224593 0.22459,-0.474142 0.22459,-0.7736 0,-0.299458 -0.0748,-0.565644 -0.22459,-0.798555 -0.14973,-0.232912 -0.36601,-0.415915 -0.63219,-0.540688 -0.27451,-0.124775 -0.58228,-0.19132 -0.92333,-0.19132 h -2.38735 v 2.986263 h 2.38735 c 0.34936,0 0.66546,-0.05823 0.93164,-0.183003 z m 13.77508,-3.884638 c -0.35769,0.557325 -0.85678,0.998195 -1.50561,1.305971 h -0.009 c -0.11645,0.05823 -0.24955,0.108137 -0.38264,0.158047 l 2.66185,4.558418 h -2.94467 l -2.36239,-4.250642 H 111.335 v 4.250642 h -2.57867 V 53.253636 h 5.10743 c 0.84014,0 1.58047,0.14973 2.22097,0.457506 0.64051,0.307776 1.13129,0.740327 1.48065,1.297652 0.34938,0.557325 0.52406,1.189515 0.52406,1.929841 0,0.740327 -0.17468,1.397472 -0.53237,1.954796 z m -2.96131,-0.507415 c 0.26618,-0.133092 0.47414,-0.324412 0.61555,-0.565643 v 0.0083 c 0.14141,-0.241231 0.21628,-0.524053 0.21628,-0.856784 0,-0.332731 -0.0748,-0.615552 -0.21628,-0.856782 -0.14141,-0.241231 -0.34937,-0.424233 -0.61555,-0.557326 -0.26619,-0.124773 -0.58228,-0.19132 -0.93997,-0.19132 h -2.32079 v 3.219175 h 2.32079 c 0.35769,0 0.67378,-0.06654 0.93997,-0.199639 z m 4.58338,6.529851 4.16745,-11.662231 h 2.79494 l 4.25896,11.662231 h -2.57034 l -0.88174,-2.570349 h -4.32551 l -0.82351,2.570349 z m 5.37361,-8.642694 -1.33925,4.117549 h 3.08608 l -1.43074,-4.117549 -0.15805,-0.748645 z m 9.50779,8.642694 H 131.3989 V 53.253636 h 2.66185 z m 4.52514,-11.662231 5.00761,7.885731 h 0.009 v -7.885731 h 2.35408 v 11.662231 h -2.53708 l -4.99097,-7.885731 v 7.885731 h -2.35407 V 53.253636 Z m 14.7899,4.708148 c 0.5906,0.108137 1.10634,0.332731 1.56384,0.657144 v -0.01663 c 0.45751,0.332732 0.80688,0.732009 1.06474,1.222788 0.25787,0.490779 0.38264,1.023149 0.38264,1.597109 0,0.707054 -0.19132,1.339244 -0.56564,1.896569 -0.37432,0.557325 -0.89837,0.998193 -1.56384,1.314288 -0.67377,0.316095 -1.44737,0.474142 -2.30416,0.474142 -0.85678,0 -1.62206,-0.158047 -2.28753,-0.465823 -0.66546,-0.307777 -1.18951,-0.748645 -1.57215,-1.297652 -0.38264,-0.549007 -0.58228,-1.197832 -0.5906,-1.921524 h 2.57867 c 0,0.299459 0.0832,0.565644 0.24123,0.798556 0.15805,0.232912 0.38264,0.407595 0.67378,0.53237 0.29114,0.124774 0.62387,0.19132 0.98156,0.19132 0.35768,0 0.66546,-0.05823 0.93165,-0.166366 0.26618,-0.108137 0.46581,-0.266184 0.61554,-0.474141 0.14973,-0.207958 0.2246,-0.440869 0.2246,-0.698736 0,-0.324413 -0.0998,-0.590598 -0.29946,-0.806874 -0.19963,-0.216275 -0.47414,-0.366004 -0.81519,-0.449187 l -2.09621,-0.43255 c -0.549,-0.116456 -1.03146,-0.324413 -1.44737,-0.623871 -0.41592,-0.299459 -0.74034,-0.682099 -0.96493,-1.131287 -0.22459,-0.457505 -0.34105,-0.96492 -0.34105,-1.522245 0,-0.698736 0.18301,-1.314288 0.53238,-1.854977 0.35768,-0.540688 0.84846,-0.964921 1.48065,-1.272697 0.63219,-0.307776 1.34756,-0.457506 2.16275,-0.457506 0.81519,0 1.5472,0.14973 2.17939,0.44087 0.63219,0.291139 1.13128,0.698735 1.48898,1.222787 0.35768,0.515733 0.549,1.122968 0.56563,1.796748 h -2.57867 c 0,-0.249548 -0.0748,-0.474142 -0.20795,-0.67378 -0.14141,-0.199639 -0.33273,-0.349368 -0.57396,-0.457505 -0.24123,-0.116456 -0.53237,-0.166366 -0.84846,-0.166366 -0.3161,0 -0.59892,0.05823 -0.84015,0.158047 -0.24123,0.09982 -0.43255,0.249549 -0.56565,0.432551 -0.13309,0.19132 -0.19963,0.407595 -0.19963,0.657144 0,0.282821 0.0915,0.507415 0.2745,0.698735 0.183,0.191321 0.43255,0.316095 0.74033,0.39096 z m 11.96169,6.954083 h -2.66184 V 53.253636 h 2.66184 z m 6.55481,-11.662231 c 1.10633,0 2.10453,0.257867 2.98626,0.756964 0.88174,0.507415 1.58047,1.197833 2.07958,2.087889 0.50741,0.881738 0.75696,1.88825 0.75696,2.986263 0,1.098013 -0.25787,2.096207 -0.75696,2.986263 -0.49911,0.890056 -1.18952,1.580473 -2.07958,2.087888 -0.89005,0.507416 -1.87993,0.756964 -2.98626,0.756964 H 167.3422 V 53.253636 Z m 1.67198,9.033655 c 0.48246,-0.291141 0.85678,-0.707054 1.11465,-1.247743 v -0.0083 c 0.25786,-0.540689 0.39096,-1.197833 0.39096,-1.954796 0,-0.756964 -0.1331,-1.414108 -0.39096,-1.954797 -0.25787,-0.540688 -0.63219,-0.956602 -1.11465,-1.247742 -0.48247,-0.291139 -1.0481,-0.43255 -1.70525,-0.43255 h -1.92984 v 7.278496 h 1.92984 c 0.65715,0 1.22278,-0.141411 1.70525,-0.43255 z m 8.15191,-2.129481 v 2.512121 h 6.13889 v 2.245936 h -8.65101 V 53.253636 h 8.48464 v 2.254255 h -5.97252 v 2.470529 h 5.40689 v 2.17939 z"
     clip-rule="evenodd"
     id="path4"
     style="stroke-width:0.831828" />
  <path
     fill="url(#a)"
     d="M 53.237,49.847716 V 21.591929 c 0,-1.355131 -0.807788,-2.580081 -2.053035,-3.113865 L 19.99823,5.1121828 C 19.576659,4.9316594 19.122231,4.8382535 18.663478,4.8382535 H 3.3878114 C 1.5167721,4.8382535 0,6.3550172 0,8.2260565 V 23.170656 c 0,0.669372 0.19842844,1.323688 0.57012002,1.88068 L 18.374002,51.726983 c 0.628196,0.941796 1.685699,1.507105 2.817735,1.507105 l 28.657477,0.0014 c 1.871031,0 3.387786,-1.516755 3.387786,-3.387786 z"
     id="path5"
     style="fill:url(#a);stroke-width:0.831828" />
  <path
     fill="url(#b)"
     d="M 48.397257,12.077562 V 3.3878114 C 48.397257,1.5167721 46.880502,0 45.009472,0 H 34.118595 C 33.958468,0 33.798258,0.01161565 33.639462,0.03387787 L 2.9086784,4.4239947 C 1.2394572,4.6621055 0,6.0917602 0,7.7774433 V 20.814669 c 0,1.87153 1.5172545,3.388286 3.3887763,3.38787 l 15.4208537,-0.0039 c 0.363925,0 0.725437,-0.05856 1.07048,-0.173769 l 26.200839,-8.733779 c 1.383247,-0.461165 2.316308,-1.755823 2.316308,-3.214017 z"
     id="path6"
     style="fill:url(#b);stroke-width:0.831828" />
  <path
     fill="#ff318c"
     d="m 48.396925,13.265662 -0.0014,-9.8783331 C 48.395511,1.5167721 46.878672,0 45.007642,0 h -9.571515 c -0.98871,0 -1.928593,0.43218795 -2.572261,1.1828263 L 5.6553665,32.926586 c -0.526073,0.614138 -0.815491,1.396306 -0.815491,2.205009 v 9.878375 c 0,1.871031 1.516772,3.387786 3.3878114,3.387786 h 9.5729361 c 0.988794,0 1.928676,-0.432217 2.572345,-1.182859 L 47.581401,15.471172 c 0.52663,-0.61414 0.815524,-1.396307 0.815524,-2.20551 z"
     id="path7"
     style="stroke-width:0.831828" />
  <path
     fill="#000000"
     d="M 43.255062,9.9819379 H 9.9819379 V 43.255062 H 43.255062 Z"
     id="path8"
     style="stroke-width:0.831828" />
  <path
     fill="#ffffff"
     d="m 16.675741,25.920596 c 0.964422,0.555662 2.041057,0.834241 3.229822,0.834241 v -9.15e-4 c 1.005348,0 1.928428,-0.186413 2.768325,-0.559072 0.839896,-0.372659 1.537718,-0.892635 2.093877,-1.561425 0.561818,-0.674446 0.937804,-1.446382 1.126962,-2.315809 h -2.537742 c -0.16595,0.449187 -0.414001,0.846135 -0.745317,1.188849 -0.325661,0.337472 -0.718701,0.597918 -1.180281,0.78092 -0.461083,0.183003 -0.963923,0.275252 -1.508188,0.275252 -0.733423,0 -1.396058,-0.183002 -1.987404,-0.550005 -0.591763,-0.36692 -1.056172,-0.869344 -1.393146,-1.508188 -0.331317,-0.644084 -0.496768,-1.369439 -0.496768,-2.173733 0,-0.804211 0.165451,-1.526238 0.496768,-2.165082 0.337473,-0.644584 0.801882,-1.150335 1.393146,-1.517255 0.591346,-0.367002 1.253981,-0.550004 1.987404,-0.550004 0.543766,0 1.046689,0.09225 1.508188,0.275252 0.46158,0.183002 0.85462,0.446775 1.180281,0.789488 0.331316,0.337472 0.579367,0.731093 0.745317,1.18028 h 2.537742 c -0.189657,-0.869343 -0.565144,-1.637952 -1.126962,-2.306742 -0.556159,-0.67453 -1.253981,-1.197833 -2.093877,-1.570491 -0.839897,-0.372659 -1.762977,-0.558989 -2.768325,-0.558989 -1.189264,0 -2.265899,0.28041 -3.229822,0.842725 -0.964505,0.555662 -1.721634,1.325185 -2.271639,2.306742 -0.549921,0.975901 -0.825174,2.06726 -0.825174,3.274076 0,1.2069 0.275253,2.301585 0.825174,3.283142 0.550421,0.975818 1.307634,1.744428 2.271639,2.306743 z"
     id="path9"
     style="stroke-width:0.831828" />
  <path
     fill="#ffffff"
     d="M 30.049624,24.358672 V 14.119617 H 27.636325 V 26.54139 h 8.304972 v -2.182718 z"
     id="path10"
     style="stroke-width:0.831828" />
  <path
     fill="#ffffff"
     d="M 14.136171,36.59944 H 27.44542 v 2.495484 H 14.136171 Z"
     id="path11"
     style="stroke-width:0.831828" />
</svg>
